<svg width="72" height="72" viewBox="0 0 72 72" fill="none" xmlns="http://www.w3.org/2000/svg">
<circle cx="36" cy="36" r="36" fill="#EEF0FB"/>
<path d="M42 26H32C30.9391 26 29.9217 26.4214 29.1716 27.1716C28.4214 27.9217 28 28.9391 28 30V42C28 43.0609 28.4214 44.0783 29.1716 44.8284C29.9217 45.5786 30.9391 46 32 46H42C42.5304 46 43.0391 45.7893 43.4142 45.4142C43.7893 45.0391 44 44.5304 44 44V28C44 27.4696 43.7893 26.9609 43.4142 26.5858C43.0391 26.2107 42.5304 26 42 26ZM30 30C30 29.4696 30.2107 28.9609 30.5858 28.5858C30.9609 28.2107 31.4696 28 32 28H42V38H32C31.295 38.003 30.604 38.1964 30 38.56V30ZM32 44C31.4696 44 30.9609 43.7893 30.5858 43.4142C30.2107 43.0391 30 42.5304 30 42C30 41.4696 30.2107 40.9609 30.5858 40.5858C30.9609 40.2107 31.4696 40 32 40H42V44H32ZM34 32H38C38.2652 32 38.5196 31.8946 38.7071 31.7071C38.8946 31.5196 39 31.2652 39 31C39 30.7348 38.8946 30.4804 38.7071 30.2929C38.5196 30.1054 38.2652 30 38 30H34C33.7348 30 33.4804 30.1054 33.2929 30.2929C33.1054 30.4804 33 30.7348 33 31C33 31.2652 33.1054 31.5196 33.2929 31.7071C33.4804 31.8946 33.7348 32 34 32Z" fill="#6563FF"/>
</svg>
